<svg height="468pt" viewBox="-2 0 468 468.72" width="468pt" xmlns="http://www.w3.org/2000/svg"><path d="m245.304688 292.71875 16 32h139.054687l-16-32zm0 0"/><path d="m219.414062 292.71875h-139.054687l-16 32h139.054687zm0 0"/><path d="m240.359375 318.609375v70.109375h-16v-70.109375l-11.054687 22.109375h-116.945313v128h128v-56h16v56h128v-128h-116.945313zm-80 134.109375h-48v-16h48zm0-32h-48v-16h48zm32 32h-16v-16h16zm0 0"/><path d="m195.414062 118.832031 36.945313-9.417969 36.945313 9.417969 2.894531-39.671875 19.632812-33.527344-34.710937-15.023437-24.761719-30.609375-24.757813 30.609375-34.714843 15.023437 19.632812 33.527344zm0 0"/><path d="m72.199219 135.160156 11.632812-19.855468-20.601562-8.921876-14.871094-18.382812-14.871094 18.382812-20.601562 8.921876 11.632812 19.855468 1.710938 23.671875 22.128906-5.632812 22.128906 5.632812zm0 0"/><path d="m394.230469 158.832031 22.128906-5.632812 22.128906 5.632812 1.710938-23.671875 11.632812-19.855468-20.601562-8.921876-14.871094-18.382812-14.871094 18.382812-20.601562 8.921876 11.632812 19.855468zm0 0"/><path d="m83.921875 179.375c15.230469 10.160156 28.765625 22.5625 40.199219 36.863281l31.6875 39.59375-6.550782-52.417969c-3.425781-27.367187-18.042968-52.558593-40.105468-69.101562l-7.664063-5.746094-23.449219 46.890625zm0 0"/><path d="m315.464844 203.414062-6.554688 52.417969 31.691406-39.601562c11.4375-14.300781 24.964844-26.703125 40.199219-36.863281l5.871094-3.917969-23.449219-46.890625-7.664062 5.761718c-22.054688 16.542969-36.679688 41.726563-40.09375 69.09375zm0 0"/><path d="m264.359375 260.71875h16v-33.519531c0-38.421875 13.542969-75.832031 38.152344-105.359375l-12.296875-10.238282c-26.992188 32.390626-41.855469 73.445313-41.855469 115.597657zm0 0"/><path d="m320.359375 84.71875h16v16h-16zm0 0"/><path d="m344.359375 52.71875h16v16h-16zm0 0"/><path d="m184.359375 260.71875h16v-33.519531c0-42.160157-14.863281-83.207031-41.847656-115.597657l-12.296875 10.238282c24.601562 29.527344 38.144531 66.9375 38.144531 105.359375zm0 0"/><path d="m128.359375 84.71875h16v16h-16zm0 0"/><path d="m104.359375 52.71875h16v16h-16zm0 0"/><path d="m224.359375 124.71875h16v16h-16zm0 0"/><path d="m224.359375 156.71875h16v104h-16zm0 0"/><path d="m432.359375 204.71875h16v16h-16zm0 0"/><path d="m432.359375 236.71875h16v16h-16zm0 0"/><path d="m448.359375 220.71875h16v16h-16zm0 0"/><path d="m416.359375 220.71875h16v16h-16zm0 0"/><path d="m424.359375 4.71875h16v16h-16zm0 0"/><path d="m424.359375 36.71875h16v16h-16zm0 0"/><path d="m440.359375 20.71875h16v16h-16zm0 0"/><path d="m408.359375 20.71875h16v16h-16zm0 0"/><path d="m16.359375 236.71875h16v16h-16zm0 0"/><path d="m16.359375 268.71875h16v16h-16zm0 0"/><path d="m32.359375 252.71875h16v16h-16zm0 0"/><path d="m.359375 252.71875h16v16h-16zm0 0"/><path d="m16.359375 4.71875h16v16h-16zm0 0"/><path d="m16.359375 36.71875h16v16h-16zm0 0"/><path d="m32.359375 20.71875h16v16h-16zm0 0"/><path d="m.359375 20.71875h16v16h-16zm0 0"/></svg>